<?xml version="1.0" encoding="UTF-8"?>
<svg xmlns="http://www.w3.org/2000/svg" id="Layer_1" data-name="Layer 1" viewBox="0 0 340 156"><defs><style>.cls-1{fill:#0570d1;}.cls-2{fill:#1eafc6;}.cls-3{fill:#34a37e;}.cls-4{fill:#2b2b2b;}.cls-5{fill:#a3d641;}</style></defs><path class="cls-1" d="M49.03062,115.9508c-16.71616,0-32.26917-7.7765-43.801-21.86727L4,92.55482l1.22962-1.49548c11.53183-14.124,27.08484-21.86727,43.801-21.86727s32.26918,7.7765,43.801,21.86727l1.22962,1.49548L92.83162,94.0503C81.333,108.1743,65.74679,115.9508,49.03062,115.9508Zm-38.88253-23.396C20.61647,104.58514,34.3749,111.1985,49.03062,111.1985c14.689,0,28.41416-6.61336,38.88253-18.64368C77.44478,80.5245,63.68635,73.91114,49.03062,73.91114S20.61647,80.52449,10.14809,92.55482Z"/><path class="cls-2" d="M49.03062,94.91435c-16.71616,0-32.26917-7.7765-43.801-21.86727L4,71.5516l1.22962-1.49548c11.53183-14.124,27.08484-21.86727,43.801-21.86727s32.26918,7.7765,43.801,21.86727l1.22962,1.49548-1.22962,1.49548C81.333,87.17108,65.74679,94.91435,49.03062,94.91435ZM10.14809,71.5516C20.61647,83.58192,34.3749,90.19528,49.03062,90.19528c14.689,0,28.41416-6.61335,38.88253-18.64368C77.44478,59.52128,63.68635,52.90793,49.03062,52.90793S20.61647,59.48805,10.14809,71.5516Z"/><path class="cls-3" d="M49.03062,73.91114c-16.71616,0-32.26917-7.7765-43.801-21.86727L4,50.54839l1.22962-1.49548c11.53183-14.124,27.08484-21.86727,43.801-21.86727s32.26918,7.77651,43.801,21.86727l1.22962,1.49548-1.22962,1.49548C81.333,66.13463,65.74679,73.91114,49.03062,73.91114ZM10.14809,50.54839C20.61647,62.57871,34.3749,69.19206,49.03062,69.19206c14.689,0,28.41416-6.61335,38.88253-18.64367C77.44478,38.51807,63.68635,31.90471,49.03062,31.90471,34.3749,31.87148,20.61647,38.48484,10.14809,50.54839Z"/><path class="cls-3" d="M128.125,24.49377h6.281l16.982,38.88253H144.243l-3.92148-9.30522H122.07661L118.1219,63.3763h-6.94569Zm9.704,23.52892L131.1492,32.56937l-6.61335,15.45332Z"/><path class="cls-3" d="M154.71135,68.8265l2.49247-5.01817a19.05226,19.05226,0,0,0,10.36867,3.0242c5.94871,0,9.20553-3.0242,9.20553-8.87319V55.766c-2.426,3.09066-5.4502,5.284-10.269,5.284-6.87922,0-13.22671-5.08464-13.22671-13.6255v-.0997c0-8.60733,6.44719-13.65873,13.22671-13.65873a12.56893,12.56893,0,0,1,10.2025,4.9517V34.231h6.67981V57.39437c0,4.91848-1.26285,8.54086-3.68885,10.96687-2.65863,2.65863-6.713,3.92149-11.96385,3.92149A25.0051,25.0051,0,0,1,154.71135,68.8265ZM176.81124,47.358v-.0997c0-4.75231-3.92148-7.94267-8.54086-7.94267s-8.275,3.15712-8.275,7.94267v.0997a7.932,7.932,0,0,0,8.275,8.00914C172.88976,55.36717,176.81124,52.11034,176.81124,47.358Z"/><path class="cls-1" d="M188.84157,57.7267l4.08765-4.852c3.68884,3.19036,7.44418,5.01818,12.19649,5.01818,4.18734,0,6.846-1.994,6.846-4.852v-.0997c0-2.75834-1.5287-4.25382-8.707-5.91547-8.20854-1.994-12.86115-4.42-12.86115-11.53182v-.0997c0-6.61336,5.51666-11.1995,13.19348-11.1995a21.24386,21.24386,0,0,1,13.99106,4.852l-3.65563,5.11787c-3.48945-2.59217-6.94569-3.95472-10.46837-3.95472-3.95473,0-6.281,2.02721-6.281,4.58615v.0997c0,2.991,1.76134,4.287,9.20552,6.08162,8.1753,1.994,12.36266,4.91848,12.36266,11.2992v.0997c0,7.21154-5.68282,11.53182-13.79167,11.53182A23.68421,23.68421,0,0,1,188.84157,57.7267Z"/><path class="cls-1" d="M225.92951,55.3007V39.98032h-3.68884V34.231h3.68884v-7.9759h6.67982v8.00913h7.843v5.7493h-7.843V54.30371c0,2.59217,1.32931,3.62239,3.58915,3.62239a8.777,8.777,0,0,0,4.12089-.997v5.4502a11.6686,11.6686,0,0,1-6.01515,1.49548C229.419,63.84156,225.92951,61.71465,225.92951,55.3007Z"/><path class="cls-1" d="M244.14116,54.96837v-.0997c0-6.281,4.95171-9.37168,12.06355-9.37168a24.95679,24.95679,0,0,1,7.843,1.19638v-.73112c0-4.12089-2.52569-6.34749-7.21155-6.34749a20.47362,20.47362,0,0,0-8.34146,1.82781l-1.82781-5.2508a25.31276,25.31276,0,0,1,11.03334-2.35954c4.3535,0,7.61035,1.16315,9.63755,3.25683,2.16014,2.09367,3.15713,5.18433,3.15713,8.97289V63.30984h-6.51365V59.68745a11.87706,11.87706,0,0,1-9.47138,4.25382C249.0264,63.97449,244.14116,60.81736,244.14116,54.96837Zm20.00623-2.09367v-1.994a18.29236,18.29236,0,0,0-6.61337-1.16315c-4.287,0-6.846,1.82781-6.846,4.852v.0997c0,2.8248,2.49247,4.42,5.68282,4.42C260.79087,59.12249,264.14739,56.56355,264.14739,52.8747Z"/><path class="cls-1" d="M275.77891,48.95321v-.0997a15.01438,15.01438,0,0,1,15.15421-15.22068A14.67144,14.67144,0,0,1,302.56465,38.651l-4.18734,4.45321c-2.02721-2.09367-4.18735-3.65562-7.51064-3.65562-4.852,0-8.44117,4.18735-8.44117,9.272v.0997c0,5.18434,3.58915,9.30522,8.707,9.30522,3.15713,0,5.417-1.429,7.54388-3.58915l4.02118,3.95471a15.23977,15.23977,0,0,1-26.91868-9.53784Z"/><path class="cls-1" d="M307.68253,23.098h6.71305V47.1254L326.45913,34.231H334.568L323.03614,46.09518,335,63.34307h-7.843L318.5497,50.71456l-4.12089,4.287v8.34147h-6.71306V23.098Z"/><path class="cls-4" d="M116.992,82.18614h1.861L123.838,93.61827h-2.1269l-1.16315-2.75834h-5.38374L114.001,93.61827h-2.06044Zm2.858,6.91245-1.96074-4.55291-1.96074,4.55291Z"/><path class="cls-4" d="M130.6507,82.25261h1.994v9.53785h5.98193v1.82781H130.6507Z"/><path class="cls-4" d="M140.52088,81.85381h2.12691v1.86105h-2.12691Zm.03323,3.19036h1.994v8.5741h-1.994Z"/><path class="cls-4" d="M145.107,85.04417h1.994v1.32932a3.1467,3.1467,0,0,1,2.69187-1.49548c1.9275,0,3.05743,1.29608,3.05743,3.29006V93.6515h-1.96074V88.76626c0-1.32932-.66466-2.09367-1.82781-2.09367a1.90825,1.90825,0,0,0-1.92751,2.1269v4.852h-1.994V85.04417Z"/><path class="cls-4" d="M155.07691,90.49437v-5.4502h1.96074v4.88524c0,1.32932.66466,2.09368,1.82781,2.09368a1.89149,1.89149,0,0,0,1.92751-2.12691v-4.852h1.994v8.5741h-1.994V92.289a3.14671,3.14671,0,0,1-2.69187,1.49548C156.20683,93.78443,155.07691,92.48835,155.07691,90.49437Z"/><path class="cls-4" d="M168.73565,87.93544l1.994-2.858h2.09367l-3.0242,4.18736,3.15713,4.38674h-2.1269l-2.12691-3.05743-2.09367,3.05743h-2.09368L167.639,89.298l-3.0242-4.22059h2.12691Z"/><path class="cls-4" d="M179.769,82.25261h8.4744v1.82781h-6.4472v3.09066h5.71607v1.82781h-5.71607v4.61938h-1.994V82.25261Z"/><path class="cls-4" d="M189.473,89.39769h0a4.49759,4.49759,0,0,1,4.58614-4.51969,4.435,4.435,0,0,1,4.55292,4.45322v.03323a4.57155,4.57155,0,0,1-9.13906.03324Zm7.17833,0h0a2.67024,2.67024,0,0,0-2.62541-2.79157,2.586,2.586,0,0,0-2.59217,2.7251v.03324a2.66137,2.66137,0,0,0,2.62541,2.75833A2.60377,2.60377,0,0,0,196.65131,89.39769Z"/><path class="cls-4" d="M200.53957,90.49437v-5.4502h1.96075v4.88524c0,1.32932.66466,2.09368,1.82781,2.09368a1.89147,1.89147,0,0,0,1.9275-2.12691v-4.852h1.994v8.5741h-1.994V92.289a3.14667,3.14667,0,0,1-2.69185,1.49548C201.63625,93.78443,200.53957,92.48835,200.53957,90.49437Z"/><path class="cls-4" d="M210.67561,85.04417h1.994v1.32932a3.14668,3.14668,0,0,1,2.69186-1.49548c1.9275,0,3.05743,1.29608,3.05743,3.29006V93.6515h-1.96075V88.76626c0-1.32932-.66466-2.09367-1.82781-2.09367a1.90824,1.90824,0,0,0-1.92751,2.1269v4.852h-1.994V85.04417Z"/><path class="cls-4" d="M220.31316,89.36446h0c0-2.858,1.92751-4.48645,3.98795-4.48645a3.53349,3.53349,0,0,1,2.9245,1.49548V81.75412h1.96075V93.61828h-1.96075v-1.429a3.41424,3.41424,0,0,1-2.9245,1.59517A4.0934,4.0934,0,0,1,220.31316,89.36446Zm6.94567,0h0a2.59044,2.59044,0,0,0-2.49247-2.79157,2.51679,2.51679,0,0,0-2.45924,2.75834v.03323a2.55527,2.55527,0,0,0,2.45924,2.75834A2.62094,2.62094,0,0,0,227.25883,89.36446Z"/><path class="cls-4" d="M231.08062,91.159h0c0-1.89427,1.46226-2.79156,3.55593-2.79156a6.5,6.5,0,0,1,2.29308.36556v-.1994c0-1.22961-.73113-1.861-2.12692-1.861a5.92578,5.92578,0,0,0-2.45924.53173l-.53172-1.52872a7.37082,7.37082,0,0,1,3.25682-.6979,3.719,3.719,0,0,1,2.8248.96376,3.60394,3.60394,0,0,1,.93052,2.65863v5.08464h-1.92751V92.62127a3.48887,3.48887,0,0,1-2.79157,1.26285C232.50963,93.78443,231.08062,92.88715,231.08062,91.159Zm5.88223-.63142v-.5982a5.34158,5.34158,0,0,0-1.96075-.33232c-1.26285,0-2.0272.53172-2.0272,1.429v.03324c0,.83082.73113,1.29608,1.66165,1.29608C235.96586,92.35542,236.96285,91.62429,236.96285,90.52761Z"/><path class="cls-4" d="M241.51577,91.25873V86.73905h-1.09669V85.04416h1.09669V82.68463h1.96075v2.35954h2.29308v1.69489h-2.29308v4.22058A.93506.93506,0,0,0,244.54,92.02309a2.68542,2.68542,0,0,0,1.22962-.29909v1.59517a3.53918,3.53918,0,0,1-1.76134.432A2.19926,2.19926,0,0,1,241.51577,91.25873Z"/><path class="cls-4" d="M247.83,81.85381h2.12692v1.86105H247.83Zm.06647,3.19036h1.994v8.5741h-1.994Z"/><path class="cls-4" d="M251.9509,89.39769h0A4.49759,4.49759,0,0,1,256.537,84.878,4.43493,4.43493,0,0,1,261.09,89.33122v.03323a4.484,4.484,0,0,1-4.58614,4.45322A4.42811,4.42811,0,0,1,251.9509,89.39769Zm7.17832,0h0a2.67024,2.67024,0,0,0-2.62541-2.79157,2.58594,2.58594,0,0,0-2.59216,2.7251v.03324a2.66136,2.66136,0,0,0,2.62541,2.75833A2.60377,2.60377,0,0,0,259.12922,89.39769Z"/><path class="cls-4" d="M263.08393,85.04417h1.994v1.32932a3.1467,3.1467,0,0,1,2.69186-1.49548c1.92751,0,3.05744,1.29608,3.05744,3.29006V93.6515h-1.96075V88.76626c0-1.32932-.66466-2.09367-1.82782-2.09367a1.90824,1.90824,0,0,0-1.9275,2.1269v4.852h-1.994V85.04417Z"/><path class="cls-4" d="M278.27138,82.25261h4.48645c2.65863,0,4.32028,1.49548,4.32028,3.78855v.03323c0,2.55894-2.06045,3.88825-4.55292,3.88825h-2.25983v3.65563h-1.994Zm4.32028,5.91546c1.49548,0,2.45925-.83083,2.45925-2.02721v-.03324c0-1.32931-.96377-2.02721-2.45925-2.02721h-2.3263v4.08765h2.3263Z"/><path class="cls-4" d="M288.87269,85.04417h1.994v1.92752a3.01517,3.01517,0,0,1,3.02419-2.09368v2.09368h-.0997c-1.72811,0-2.92449,1.12991-2.92449,3.38975v3.25683h-1.994Z"/><path class="cls-4" d="M294.82138,89.39769h0a4.49759,4.49759,0,0,1,4.58614-4.51969,4.43494,4.43494,0,0,1,4.55291,4.45322v.03323a4.57155,4.57155,0,0,1-9.139.03324Zm7.17832,0h0a2.67024,2.67024,0,0,0-2.62541-2.79157,2.58594,2.58594,0,0,0-2.59216,2.7251v.03324a2.66136,2.66136,0,0,0,2.62541,2.75833A2.60377,2.60377,0,0,0,301.9997,89.39769Z"/><path class="cls-4" d="M304.62509,96.17721v-1.562a3.22359,3.22359,0,0,0,.565.03324c.565,0,.89729-.29909.89729-1.03022v-8.5741h1.994V93.718a2.22652,2.22652,0,0,1-2.49247,2.52571A2.93121,2.93121,0,0,1,304.62509,96.17721Zm1.39579-14.3234h2.12692v1.86105h-2.12692Z"/><path class="cls-4" d="M310.14177,89.36446h0a4.24361,4.24361,0,0,1,4.18734-4.48645c2.72511,0,4.12089,2.12691,4.12089,4.61938a3.41885,3.41885,0,0,1-.03322.565h-6.31426a2.36726,2.36726,0,0,0,2.45925,2.16015,3.15,3.15,0,0,0,2.3263-1.03022l1.16316,1.03022a4.34123,4.34123,0,0,1-3.52269,1.59518A4.27763,4.27763,0,0,1,310.14177,89.36446Zm6.34748-.63143a2.22162,2.22162,0,0,0-2.16014-2.25984A2.32115,2.32115,0,0,0,312.1025,88.733Z"/><path class="cls-4" d="M319.94549,89.39769h0a4.44676,4.44676,0,0,1,4.45322-4.51969,4.35244,4.35244,0,0,1,3.423,1.46225l-1.22962,1.32932a2.85769,2.85769,0,0,0-2.19336-1.06345,2.58856,2.58856,0,0,0-2.49247,2.7251v.03323a2.609,2.609,0,0,0,2.55894,2.75834,3.03591,3.03591,0,0,0,2.22661-1.06346l1.19637,1.16315a4.504,4.504,0,0,1-7.94267-2.82479Z"/><path class="cls-4" d="M330.11475,91.25873V86.73905h-1.09668V85.04416h1.09668V82.68463h1.96076v2.35954h2.29308v1.69489h-2.29308v4.22058a.93506.93506,0,0,0,1.06345,1.06345,2.68543,2.68543,0,0,0,1.22963-.29909v1.59517a3.53921,3.53921,0,0,1-1.76134.432A2.19927,2.19927,0,0,1,330.11475,91.25873Z"/><path class="cls-5" d="M49.03062,52.90793c-16.71616,0-32.26917-7.77651-43.801-21.86727L4,29.51194l1.22962-1.49548C16.76145,13.9257,32.31446,6.14919,49.03062,6.14919s32.26918,7.77651,43.801,21.86727l1.22962,1.49548-1.22962,1.49549C81.333,45.13142,65.74679,52.90793,49.03062,52.90793Zm-38.88253-23.396C20.61647,41.54226,34.3749,48.15562,49.03062,48.15562c14.689,0,28.41416-6.61336,38.88253-18.64368C77.44478,17.48162,63.68635,10.86827,49.03062,10.86827S20.61647,17.48162,10.14809,29.51194Z"/></svg>